# xmcd
#
# Track frame offsets: 
#        150
#        14238
#        27963
#        40003
#        51185
#        72869
#        82465
#        98865
#        114505
#        127867
#        141196
#        162451
#        176407
#        192840
#        204616
#        214526
#        233535
#
# Disc length: 3331 seconds
#
# Revision: 0
# Processed by: cddbd v1.5.1PL2 Copyright (c) Steve Scherf et al.
# Submitted via: ExactAudioCopy v0.95b3
#
DISCID=ee0d0111
DTITLE=The English Brothers - How The West Was Sung
DYEAR=2005
DGENRE=Western
TTITLE0=Texas Plains
TTITLE1=Cowpoke
TTITLE2=Tumbling Tumbleweeds
TTITLE3=Pecos Bill
TTITLE4=El Paso
TTITLE5=Down The Trail to San Antone
TTITLE6=Long Night Ride
TTITLE7=Song of Wyoming
TTITLE8=Cowboy Has to Sing
TTITLE9=Ridin' Down The Canyon
TTITLE10=Cool Water
TTITLE11=Dust On My Saddle
TTITLE12=That's Why I'll Never Want To Be Anything But A Cowboy
TTITLE13=Star-Spangled Banner
TTITLE14=Home On The Range
TTITLE15=Ghost Riders In The Sky
TTITLE16=Duke and Walter
EXTD=
EXTT0=
EXTT1=
EXTT2=
EXTT3=
EXTT4=
EXTT5=
EXTT6=
EXTT7=
EXTT8=
EXTT9=
EXTT10=
EXTT11=
EXTT12=
EXTT13=
EXTT14=
EXTT15=
EXTT16=
PLAYORDER=
